<?xml version="1.0" encoding="UTF-8"?>
<!DOCTYPE svg PUBLIC "-//W3C//DTD SVG 1.1//EN" "http://www.w3.org/Graphics/SVG/1.1/DTD/svg11.dtd">
<!-- Creator: CorelDRAW X6 -->
<svg xmlns="http://www.w3.org/2000/svg" xml:space="preserve" width="152.4mm" height="33.8666mm" version="1.1" style="shape-rendering:geometricPrecision; text-rendering:geometricPrecision; image-rendering:optimizeQuality; fill-rule:evenodd; clip-rule:evenodd"
viewBox="0 0 15240 3387"
 xmlns:xlink="http://www.w3.org/1999/xlink">
 <defs>
  <style type="text/css">
   <![CDATA[
    .fil0 {fill:#163E73;fill-rule:nonzero}
   ]]>
  </style>
 </defs>
 <g id="Слой_x0020_1">
  <metadata id="CorelCorpID_0Corel-Layer"/>
  <path class="fil0" d="M950 91l328 0c6,0 13,2 18,6l2070 1422c8,6 14,15 14,26l0 227c0,25 -28,40 -49,26l-2397 -1648c-25,-17 -13,-57 18,-57zm4454 2073l-135 0 -232 471 -232 -471 -146 0 0 105 278 551 -208 370 0 105 141 0 534 -1032 0 -99zm-211 -1904l342 0 0 -169 -882 0 0 169 342 0 0 960 198 0 0 -960zm526 848c59,86 144,129 254,129 103,0 186,-38 248,-114 62,-76 94,-170 94,-283 0,-112 -31,-206 -92,-281 -62,-75 -145,-113 -250,-113 -111,0 -196,44 -256,132l-13 -114 -165 0 0 1131 180 0 0 -487zm56 -101c-38,-47 -56,-103 -56,-167 0,-64 19,-120 56,-167 37,-45 87,-68 152,-68 69,0 121,23 155,69 35,47 52,102 52,166 0,64 -17,120 -52,167 -35,47 -86,71 -155,71 -63,0 -114,-24 -152,-71zm1133 108l16 104 155 0 0 -463c0,-101 -27,-178 -82,-231 -55,-53 -134,-79 -239,-79 -41,0 -78,5 -112,14 -34,10 -61,20 -81,32 -20,12 -37,26 -53,41 -15,16 -25,26 -29,32 -4,6 -7,11 -9,15l0 99 128 0 3 -5c2,-3 5,-7 8,-11 3,-5 8,-10 13,-16 5,-6 12,-12 21,-18 8,-6 18,-11 28,-16 10,-4 22,-8 35,-11 13,-3 28,-4 44,-4 96,0 144,51 144,152l0 41 -19 -5c-14,-3 -34,-6 -60,-9 -26,-3 -52,-4 -77,-4 -104,0 -182,21 -234,62 -52,42 -77,97 -77,166 0,64 21,119 62,165 42,46 104,69 187,69 97,0 173,-41 228,-122zm-299 -122c0,-66 46,-99 138,-99 58,0 109,6 150,18l0 36c0,36 -16,69 -47,99 -31,30 -73,45 -126,45 -77,0 -116,-33 -116,-99zm852 -84l318 0 0 310 181 0 0 -755 -181 0 0 292 -318 0 0 -292 -180 0 0 755 180 0 0 -310zm1172 311c37,-11 66,-23 86,-37 20,-14 37,-29 52,-47 15,-18 24,-31 28,-38 3,-7 6,-13 8,-17l0 -99 -126 0 0 3c-1,2 -2,5 -4,9 -2,4 -4,8 -7,13 -2,4 -6,10 -11,16 -5,6 -10,12 -16,17 -6,5 -13,10 -22,15 -8,5 -18,10 -28,14 -10,4 -23,7 -37,9 -14,2 -29,3 -45,3 -65,0 -116,-22 -150,-67 -35,-45 -52,-102 -52,-172 0,-70 17,-128 52,-173 35,-45 85,-68 150,-68 19,0 37,2 54,5 17,4 31,8 42,13 11,6 21,12 30,20 9,7 16,15 22,21 5,7 10,13 13,19 3,6 6,10 7,13l1 6 126 0 0 -99 -6 -15c-5,-11 -14,-24 -28,-40 -14,-16 -31,-31 -51,-46 -20,-15 -49,-28 -86,-38 -37,-11 -78,-16 -123,-16 -117,0 -210,38 -280,114 -69,76 -104,170 -104,284 0,114 33,209 100,284 66,75 161,112 284,112 45,0 86,-6 123,-17zm527 -605l303 0 0 603 181 0 0 -755 -665 0 0 755 180 0 0 -603zm1315 507c70,-76 105,-170 105,-283 0,-112 -35,-206 -105,-281 -70,-75 -163,-113 -280,-113 -119,0 -213,38 -283,113 -69,75 -104,169 -104,281 0,113 35,208 105,284 70,76 164,114 282,114 117,0 210,-38 280,-114zm-435 -113c-34,-46 -51,-103 -51,-170 0,-65 17,-121 51,-167 35,-47 86,-71 155,-71 68,0 120,24 155,71 33,47 49,103 49,167 0,67 -16,124 -49,170 -35,47 -86,71 -155,71 -68,0 -120,-24 -155,-71zm880 98c59,86 144,129 254,129 103,0 186,-38 248,-114 62,-76 94,-170 94,-283 0,-112 -31,-206 -92,-281 -62,-75 -145,-113 -250,-113 -111,0 -196,44 -256,132l-13 -114 -165 0 0 1131 180 0 0 -487zm56 -101c-38,-47 -56,-103 -56,-167 0,-64 19,-120 56,-167 37,-45 87,-68 152,-68 69,0 121,23 155,69 35,47 52,102 52,166 0,64 -17,120 -52,167 -35,47 -86,71 -155,71 -64,0 -114,-24 -152,-71zm1035 -391l229 0 0 -152 -638 0 0 152 229 0 0 603 180 0 0 -603zm540 293l318 0 0 310 181 0 0 -755 -181 0 0 292 -318 0 0 -292 -180 0 0 755 180 0 0 -310zm1258 233c51,-49 76,-111 76,-185 0,-75 -27,-136 -80,-181 -53,-46 -131,-69 -233,-69l-135 0 0 -244 -180 0 0 755 312 0c107,0 187,-26 239,-77zm350 -678l-180 0 0 755 180 0 0 -755zm-602 385c94,0 141,37 141,110 0,79 -47,119 -141,119l-119 0 0 -229 119 0zm1324 -542c16,-11 30,-24 42,-38 12,-14 20,-25 23,-33 3,-8 6,-15 8,-21l0 -90 -132 0c0,7 -2,17 -7,30 -5,13 -16,27 -33,42 -17,15 -37,23 -61,23 -26,0 -47,-8 -64,-23 -17,-15 -27,-29 -31,-41 -4,-12 -6,-23 -6,-31l-132 0 0 90c2,6 5,13 8,21 3,8 11,19 23,33 12,14 26,27 42,38 16,11 38,21 66,29 28,9 60,13 94,13 35,0 66,-4 94,-13 28,-9 50,-18 66,-29zm-1 415l0 496 181 0 0 -755 -170 0 -345 495 0 -495 -180 0 0 755 168 0 345 -496zm-9169 1886l318 0 0 310 181 0 0 -755 -181 0 0 292 -318 0 0 -292 -180 0 0 755 180 0 0 -310zm1220 -187l0 496 182 0 0 -755 -170 0 -345 495 0 -495 -180 0 0 755 168 0 345 -496zm959 439c51,-38 76,-94 76,-169 0,-42 -12,-78 -37,-109 -25,-31 -59,-52 -104,-65 74,-30 112,-83 112,-159 0,-64 -24,-113 -73,-147 -49,-34 -113,-51 -193,-51l-351 0 0 758 367 0c85,0 153,-19 204,-57zm-240 -566c67,0 100,27 100,80 0,55 -33,83 -100,83l-155 0 0 -162 155 0zm9 299c80,0 120,31 120,93 0,62 -40,93 -120,93l-164 0 0 -187 164 0zm948 327c39,-10 70,-20 92,-32 22,-12 42,-26 59,-41 17,-15 28,-26 33,-32 4,-6 8,-11 10,-15l0 -99 -131 0 -1 5c-2,3 -5,7 -9,11 -4,5 -9,10 -15,16 -6,6 -14,12 -24,18 -10,6 -21,11 -34,16 -13,5 -29,8 -47,11 -18,3 -38,5 -59,5 -64,0 -115,-19 -152,-56 -37,-37 -58,-88 -62,-153l541 0 7 -89c0,-102 -29,-185 -88,-247 -58,-63 -146,-94 -263,-94 -118,0 -211,38 -278,113 -67,75 -101,170 -101,283 0,118 34,214 102,287 68,73 165,109 292,109 46,0 88,-5 127,-14zm-142 -627c56,0 100,15 130,44 30,30 45,67 45,112l-367 0c22,-104 86,-156 192,-156zm702 511c60,86 144,129 254,129 103,0 186,-38 248,-114 63,-76 94,-170 94,-283 0,-112 -31,-206 -92,-281 -61,-75 -145,-113 -250,-113 -111,0 -196,44 -256,132l-13 -114 -165 0 0 1131 180 0 0 -487zm57 -101c-38,-47 -57,-103 -57,-167 0,-64 19,-120 57,-167 37,-45 87,-68 152,-68 69,0 121,23 155,69 35,47 52,102 52,165 0,64 -17,120 -52,167 -35,47 -86,71 -155,71 -64,0 -114,-24 -152,-71zm1170 214c37,-11 66,-23 86,-37 20,-14 37,-29 52,-47 15,-18 24,-31 28,-38 3,-7 6,-13 8,-17l0 -99 -126 0 0 3c-1,2 -2,5 -4,9 -2,4 -4,8 -7,13 -2,5 -6,10 -11,16 -5,6 -10,12 -16,17 -6,5 -13,10 -22,15 -8,5 -18,10 -28,14 -10,4 -23,7 -36,9 -14,2 -29,3 -45,3 -65,0 -116,-22 -150,-67 -35,-45 -52,-102 -52,-172 0,-70 17,-128 52,-173 35,-45 85,-68 150,-68 19,0 37,2 54,5 17,4 31,8 42,13 11,6 21,12 30,20 9,7 16,15 22,21 5,7 10,13 13,19 3,6 6,11 7,14l2 6 126 0 0 -99 -6 -15c-5,-11 -14,-24 -28,-40 -14,-16 -31,-31 -51,-46 -20,-15 -49,-28 -86,-38 -37,-11 -78,-16 -123,-16 -117,0 -210,38 -280,114 -69,76 -104,170 -104,284 0,114 33,209 100,284 66,75 161,112 284,112 45,0 85,-6 123,-17zm861 -498l0 496 181 0 0 -755 -170 0 -345 495 0 -495 -180 0 0 755 168 0 345 -496zm721 -107l229 0 0 -152 -638 0 0 152 229 0 0 603 180 0 0 -603zm835 607c39,-10 70,-20 92,-32 22,-12 42,-26 59,-41 17,-15 28,-26 33,-32 4,-6 8,-11 10,-15l0 -99 -131 0 -1 5c-2,3 -5,7 -9,11 -4,5 -9,10 -15,16 -6,6 -14,12 -24,18 -10,6 -21,11 -34,16 -13,5 -28,8 -47,11 -18,3 -38,5 -59,5 -65,0 -115,-19 -152,-56 -37,-37 -58,-88 -62,-153l541 0 7 -89c0,-102 -29,-185 -88,-247 -58,-63 -146,-94 -263,-94 -118,0 -211,38 -278,113 -67,75 -101,170 -101,283 0,118 34,214 102,287 68,73 165,109 292,109 46,0 88,-5 127,-14zm-142 -627c56,0 100,15 130,44 30,30 45,67 45,112l-367 0c22,-104 86,-156 192,-156zm855 19l229 0 0 -152 -638 0 0 152 229 0 0 603 180 0 0 -603zm-12412 -1748l-724 -471c-5,-3 -11,-5 -17,-5l-163 0c-17,0 -31,14 -31,31l0 116c0,11 5,21 14,26l755 490c14,9 33,5 43,-9l123 -179zm2253 1555l-391 -274c-14,-10 -34,-6 -44,8l-105 152c-10,14 -6,34 8,44l495 342c21,14 49,-1 49,-26l0 -220c0,-10 -5,-20 -13,-26zm-1934 168l-178 -123c-14,-10 -34,-6 -44,8l-733 1068c-14,21 1,49 26,49l225 0c10,0 20,-5 26,-14l679 -989zm13 -893l-1217 -837c-21,-14 -49,1 -49,26l0 225c0,10 5,20 14,26l883 607c14,10 18,29 8,44l-899 1308c-4,5 -5,11 -5,18l0 235 0 102c0,31 40,43 57,18l1209 -1770zm676 765l1210 832c21,14 49,-1 49,-26l0 -225c0,-10 -5,-20 -14,-26l-1283 -882c-14,-10 -34,-6 -44,8l-961 1400c-14,21 1,49 26,49l225 0c10,0 20,-5 26,-14l767 -1116z"/>
 </g>
</svg>
