<?xml version="1.0" standalone="no"?>
<!DOCTYPE svg PUBLIC "-//W3C//DTD SVG 20010904//EN"
 "http://www.w3.org/TR/2001/REC-SVG-20010904/DTD/svg10.dtd">
<svg version="1.0" xmlns="http://www.w3.org/2000/svg"
 width="1280.000000pt" height="277.000000pt" viewBox="0 0 1280.000000 277.000000"
 preserveAspectRatio="xMidYMid meet">

<g transform="translate(0.000000,277.000000) scale(0.100000,-0.100000)"
fill="#000000" stroke="none">
<path d="M17 2753 c-4 -3 -7 -34 -7 -69 l0 -62 175 -114 c96 -62 245 -159 332
-215 87 -57 163 -103 169 -103 18 0 117 153 107 167 -4 7 -143 100 -309 208
l-301 195 -80 0 c-44 0 -83 -3 -86 -7z"/>
<path d="M653 2744 c-7 -20 2 -28 122 -111 97 -66 212 -145 578 -397 95 -65
222 -152 282 -194 61 -41 254 -175 430 -296 609 -420 650 -447 670 -444 18 3
20 12 23 110 l3 106 -35 27 c-44 33 -297 208 -1015 700 -97 66 -305 209 -462
318 l-287 197 -151 0 c-129 0 -153 -2 -158 -16z"/>
<path d="M3850 2690 l0 -70 150 0 150 0 0 -415 0 -415 80 0 80 0 0 415 0 415
150 0 150 0 0 70 0 70 -380 0 -380 0 0 -70z"/>
<path d="M12300 2686 c0 -62 44 -108 124 -131 138 -40 276 28 276 138 l0 37
-54 0 c-46 0 -56 -3 -61 -20 -9 -28 -53 -60 -84 -60 -33 0 -70 25 -81 56 -8
21 -16 24 -65 24 l-55 0 0 -44z"/>
<path d="M4923 2451 c-43 -11 -121 -58 -136 -82 -17 -27 -27 -24 -27 10 0 56
-6 61 -81 61 l-69 0 2 -482 3 -483 75 0 75 0 2 195 c1 107 3 199 3 203 0 5 20
-9 45 -31 68 -59 162 -77 257 -48 201 60 274 366 133 557 -56 78 -188 124
-282 100z m118 -154 c50 -33 84 -108 83 -182 -2 -131 -91 -218 -204 -198 -55
9 -84 28 -115 75 -40 58 -47 165 -17 224 38 74 84 103 163 104 42 0 65 -6 90
-23z"/>
<path d="M5605 2454 c-73 -19 -117 -39 -149 -70 -31 -30 -36 -41 -36 -79 l0
-45 51 0 c43 0 57 5 85 30 40 35 93 47 143 31 53 -16 74 -42 79 -104 l4 -52
-128 0 c-146 0 -184 -12 -236 -76 -77 -96 -22 -265 97 -298 94 -26 207 4 252
65 l21 28 9 -44 9 -45 62 -3 62 -3 0 243 c0 234 -1 245 -24 293 -27 59 -46 77
-107 104 -45 20 -157 34 -194 25z m153 -390 c27 -8 30 -50 6 -95 -29 -57 -133
-86 -193 -54 -59 30 -57 110 4 143 21 12 145 16 183 6z"/>
<path d="M7070 2444 c-151 -40 -237 -171 -228 -347 7 -136 64 -234 162 -282
178 -87 426 -2 414 143 -3 36 -4 37 -49 40 -42 3 -49 0 -68 -26 -24 -34 -86
-62 -137 -62 -127 0 -204 134 -163 285 25 92 103 144 196 130 37 -5 56 -16 87
-46 36 -36 43 -40 85 -37 45 3 46 4 49 38 7 72 -57 138 -159 166 -67 17 -118
17 -189 -2z"/>
<path d="M8525 2447 c-91 -24 -142 -62 -196 -145 -57 -90 -61 -250 -8 -354 28
-54 92 -116 148 -141 67 -31 217 -31 282 -1 69 32 123 86 155 156 26 56 29 74
29 158 0 105 -17 157 -75 230 -65 82 -220 126 -335 97z m184 -150 c88 -53 105
-239 30 -330 -47 -57 -129 -72 -205 -38 -108 49 -135 238 -49 339 55 64 147
76 224 29z"/>
<path d="M9378 2447 c-49 -14 -63 -23 -114 -70 l-32 -29 -6 46 -7 46 -70 0
-69 0 2 -482 3 -483 73 -3 72 -3 0 206 c0 113 3 205 8 205 4 0 23 -16 42 -36
59 -59 166 -79 267 -49 66 20 141 97 173 180 49 128 22 300 -62 391 -71 77
-180 109 -280 81z m122 -145 c24 -13 44 -36 63 -73 25 -47 28 -63 25 -125 -6
-120 -68 -187 -173 -188 -66 0 -111 26 -150 89 -25 41 -30 58 -30 115 0 57 4
74 30 115 17 26 46 56 65 66 45 24 124 25 170 1z"/>
<path d="M6112 2118 l3 -323 73 -3 72 -3 0 136 0 135 140 0 140 0 0 -135 0
-135 75 0 75 0 0 325 0 325 -75 0 -75 0 0 -125 0 -125 -140 0 -140 0 0 125 0
125 -75 0 -75 0 2 -322z"/>
<path d="M7572 2118 l3 -323 70 0 70 0 3 258 2 258 133 -3 132 -3 3 -258 2
-258 73 3 72 3 3 323 2 322 -285 0 -285 0 2 -322z"/>
<path d="M9822 2378 l3 -63 97 -3 98 -3 2 -257 3 -257 70 0 70 0 3 258 2 257
100 0 100 0 0 65 0 65 -275 0 -276 0 3 -62z"/>
<path d="M10482 2118 l3 -323 73 -3 72 -3 0 136 0 135 140 0 140 0 0 -135 0
-135 75 0 75 0 0 325 0 325 -75 0 -75 0 0 -125 0 -126 -137 3 -138 3 -3 123
-3 122 -74 0 -75 0 2 -322z"/>
<path d="M11250 2114 l0 -327 173 6 c185 5 227 14 281 59 90 74 101 222 23
306 -47 50 -94 66 -214 70 l-113 4 0 104 0 104 -75 0 -75 0 0 -326z m329 -19
c33 -17 41 -33 41 -85 0 -70 -49 -99 -167 -100 l-53 0 0 100 0 100 75 0 c47 0
87 -6 104 -15z"/>
<path d="M11862 2118 l3 -323 75 0 75 0 3 323 2 322 -80 0 -80 0 2 -322z"/>
<path d="M12200 2115 l0 -325 68 0 68 0 144 210 c80 115 148 209 153 210 4 0
7 -94 7 -210 l0 -210 75 0 75 0 0 325 0 325 -72 0 -73 -1 -145 -210 -145 -210
-3 210 -2 211 -75 0 -75 0 0 -325z"/>
<path d="M15 2348 c-3 -8 -4 -61 -3 -117 l3 -103 275 -190 c151 -104 322 -222
379 -261 58 -40 109 -79 114 -88 10 -16 2 -27 -430 -657 -67 -97 -172 -250
-233 -339 l-111 -163 3 -157 c3 -147 4 -158 22 -158 17 0 96 113 850 1220 60
88 129 188 153 222 25 35 43 70 41 79 -2 9 -109 89 -238 178 -129 89 -358 246
-508 350 -151 104 -282 191 -293 193 -11 3 -21 -1 -24 -9z"/>
<path d="M1577 1211 c-23 -32 -96 -138 -162 -235 -66 -97 -169 -248 -230 -336
-60 -87 -140 -203 -177 -257 -36 -54 -103 -151 -148 -216 -44 -65 -80 -126
-78 -135 3 -14 19 -17 108 -20 58 -1 110 1 116 5 9 7 117 162 558 805 60 87
108 148 117 148 9 0 80 -44 158 -97 78 -54 185 -128 239 -165 53 -36 219 -150
367 -253 170 -117 277 -185 290 -183 18 3 20 12 23 110 l3 107 -53 39 c-29 21
-177 124 -328 227 -151 104 -381 262 -511 352 -131 89 -240 163 -243 163 -3 0
-25 -26 -49 -59z"/>
<path d="M2346 1203 c-42 -57 -72 -111 -66 -117 24 -22 446 -306 455 -306 20
0 25 25 25 124 0 83 -2 95 -22 113 -46 40 -329 233 -343 233 -8 0 -30 -21 -49
-47z"/>
<path d="M8615 990 c-101 -14 -187 -80 -234 -180 -23 -48 -26 -68 -26 -155 0
-82 4 -109 22 -148 56 -121 139 -177 272 -185 109 -6 182 16 238 73 38 38 43
47 43 89 l0 46 -51 0 c-43 0 -54 -4 -72 -26 -39 -51 -131 -69 -200 -40 -100
41 -137 208 -71 322 32 57 78 77 162 72 59 -4 67 -7 98 -41 31 -33 39 -37 84
-37 l50 0 0 43 c0 115 -143 191 -315 167z"/>
<path d="M7020 981 c-84 -27 -168 -110 -196 -194 -24 -70 -24 -196 -1 -264 25
-70 93 -144 159 -173 94 -41 252 -38 343 7 59 30 85 63 85 110 l0 43 -51 0
c-38 0 -58 -6 -83 -25 -58 -44 -161 -52 -228 -19 -39 20 -79 77 -85 124 l-6
40 230 0 230 0 6 41 c16 124 -41 242 -143 295 -39 20 -214 30 -260 15z m186
-131 c27 -14 48 -33 58 -54 32 -67 34 -66 -144 -66 -88 0 -160 2 -160 5 0 3 6
20 14 38 37 86 140 121 232 77z"/>
<path d="M7840 974 c-19 -8 -52 -31 -72 -51 -40 -39 -44 -37 -50 22 -3 30 -4
30 -70 33 l-68 3 0 -486 0 -485 75 0 75 0 0 206 0 206 38 -34 c57 -52 118 -72
199 -66 115 8 188 62 242 178 22 48 26 68 26 155 -1 80 -5 111 -23 157 -27 66
-87 132 -145 159 -53 23 -176 25 -227 3z m168 -141 c75 -55 100 -189 53 -285
-68 -142 -266 -123 -319 31 -36 104 7 228 93 267 43 20 138 13 173 -13z"/>
<path d="M10630 981 c-52 -17 -89 -42 -133 -91 -101 -112 -114 -306 -30 -434
65 -98 167 -142 307 -133 102 6 144 19 198 60 39 29 43 38 46 80 l3 47 -51 0
c-39 0 -59 -6 -84 -25 -18 -14 -55 -29 -82 -34 -119 -22 -217 36 -231 137 l-6
42 232 0 231 0 1 38 c6 153 -35 242 -136 295 -31 16 -61 21 -140 24 -55 1
-111 -1 -125 -6z m186 -131 c27 -14 48 -33 58 -54 32 -67 34 -66 -144 -66
-105 0 -160 4 -160 10 0 19 27 64 53 88 47 45 127 53 193 22z"/>
<path d="M798 828 c-346 -504 -525 -765 -532 -776 -4 -7 -2 -19 4 -27 10 -11
38 -15 116 -15 l103 0 99 143 c54 78 158 230 232 337 74 107 160 233 192 279
32 47 58 90 58 97 0 14 -137 114 -156 114 -6 0 -59 -69 -116 -152z"/>
<path d="M3860 935 c0 -38 20 -85 118 -283 l119 -237 -37 -65 c-141 -251 -140
-249 -140 -295 l0 -45 58 0 59 0 58 113 c32 61 81 157 110 212 275 526 297
571 293 607 l-3 33 -57 0 -56 0 -100 -200 -99 -200 -102 203 -101 202 -60 0
-60 0 0 -45z"/>
<path d="M4610 655 l0 -326 73 3 72 3 3 133 3 133 137 -3 137 -3 3 -132 3
-133 74 0 75 0 0 325 0 325 -75 0 -75 0 0 -125 0 -125 -140 0 -140 0 0 125 0
125 -75 0 -75 0 0 -325z"/>
<path d="M5372 658 l3 -323 67 -3 66 -3 149 213 148 213 3 -212 2 -213 75 0
75 0 0 325 0 326 -72 -3 -72 -3 -73 -105 c-40 -58 -103 -149 -140 -203 -37
-54 -71 -101 -75 -103 -4 -3 -8 90 -8 205 l0 211 -75 0 -75 0 2 -322z"/>
<path d="M6145 968 c-3 -7 -4 -153 -3 -323 l3 -310 195 0 c188 1 197 1 251 27
73 33 102 78 103 157 1 66 -25 111 -81 139 l-35 18 27 18 c92 61 83 199 -19
257 -39 23 -52 24 -239 27 -157 3 -198 1 -202 -10z m335 -111 c32 -16 40 -79
14 -108 -14 -16 -31 -19 -111 -19 l-93 0 0 70 0 70 83 0 c46 0 93 -6 107 -13z
m35 -272 c16 -15 25 -36 25 -55 0 -19 -9 -40 -25 -55 -22 -23 -31 -25 -125
-25 l-100 0 0 80 0 80 100 0 c94 0 103 -2 125 -25z"/>
<path d="M9082 658 l3 -323 69 0 70 0 75 107 c42 59 108 153 146 209 l70 101
5 -208 5 -209 75 0 75 0 3 323 2 322 -74 0 -73 0 -142 -205 c-79 -113 -147
-207 -152 -210 -5 -4 -9 78 -9 204 l0 211 -75 0 -75 0 2 -322z"/>
<path d="M9790 915 l0 -65 100 0 100 0 0 -260 0 -260 75 0 75 0 0 260 0 259
98 3 97 3 1 50 c0 28 -2 56 -4 63 -3 9 -67 12 -273 12 l-269 0 0 -65z"/>
<path d="M11120 915 l0 -65 100 0 100 0 0 -260 0 -260 75 0 75 0 0 260 0 259
98 3 97 3 0 60 0 60 -272 3 -273 2 0 -65z"/>
</g>
</svg>
